<?xml version="1.0" encoding="utf-8"?>
<!-- Generator: Adobe Illustrator 23.0.5, SVG Export Plug-In . SVG Version: 6.00 Build 0)  -->
<svg version="1.1" id="Слой_1" xmlns="http://www.w3.org/2000/svg" xmlns:xlink="http://www.w3.org/1999/xlink" x="0px" y="0px"
	 viewBox="0 0 3401.57 1422.78" style="enable-background:new 0 0 3401.57 1422.78;" xml:space="preserve">
<style type="text/css">
	.st0{fill:#FFFFFF;}
	.st1{fill:#332E44;}
	.st2{fill:#FFBB2A;}
	.st3{font-family:'NeusaNextPro-Regular';}
	.st4{font-size:319.9867px;}
	.st5{letter-spacing:15;}
</style>
<g>
	<g>
		<path class="st0" d="M1591.81,705.08"/>
	</g>
	<g>
		<path class="st0" d="M170.21,769.79l49.33-174.74c0,0,766.45-34.15,937.19-166.95s1047.23-26.56,1047.23,121.42"/>
		<path class="st1" d="M167.87,769.13c2.67-14.97,5.45-29.91,8.32-44.82c2.89-14.91,5.78-29.81,8.8-44.68l4.49-22.32l4.62-22.28
			l4.62-22.28l4.74-22.24l2.28-10.68l13.05-1.46c10.56-1.18,21.28-2.45,31.92-3.73l31.98-3.79l63.92-7.85l31.93-4.02l31.91-4.09
			c21.27-2.69,42.53-5.49,63.76-8.39c21.24-2.84,42.46-5.64,63.65-8.65l63.52-9.11c21.15-3.09,42.26-6.33,63.34-9.69
			c21.09-3.27,42.14-6.63,63.14-10.19c10.5-1.76,20.98-3.61,31.46-5.45l31.36-5.69c20.88-3.84,41.7-7.87,62.42-12.09
			c10.35-2.14,20.7-4.28,30.99-6.56c5.15-1.13,10.31-2.22,15.43-3.4c5.13-1.17,10.28-2.27,15.38-3.5l15.32-3.63l15.25-3.77
			l15.17-3.88c5.05-1.3,10.05-2.7,15.08-4.04c10.01-2.76,19.98-5.61,29.82-8.62c4.96-1.43,9.82-3.03,14.71-4.56
			c4.91-1.51,9.7-3.18,14.53-4.79c9.63-3.26,19.08-6.74,28.35-10.37c2.36-0.86,4.59-1.84,6.88-2.77l6.84-2.81l6.65-2.95
			c2.2-1,4.48-1.93,6.58-3c4.26-2.08,8.63-4.09,12.64-6.32l3.07-1.62c1.02-0.54,2.07-1.07,3.01-1.65l5.8-3.39l1.45-0.84l1.36-0.88
			l2.7-1.75c1.79-1.16,3.67-2.29,5.22-3.51l5.16-3.74l4.43-3.28c1.48-1.08,2.95-2.04,4.44-3.06c5.92-3.96,11.86-7.47,17.75-10.55
			c2.96-1.61,5.89-3,8.83-4.45c1.47-0.71,2.93-1.35,4.4-2.03c1.47-0.66,2.94-1.35,4.39-1.95c11.69-5.03,23.3-9.09,34.8-12.6
			c23-6.95,45.69-11.81,68.24-15.53c11.27-1.87,22.5-3.46,33.7-4.85c11.2-1.38,22.37-2.47,33.52-3.43
			c11.15-0.95,22.27-1.75,33.37-2.38c11.1-0.61,22.18-1.05,33.25-1.39c11.06-0.33,22.11-0.52,33.14-0.61
			c11.03-0.07,22.04,0.02,33.05,0.16c22,0.27,43.94,1.14,65.84,2.29c21.89,1.16,43.73,2.67,65.53,4.48
			c21.79,1.92,43.53,4.2,65.22,6.76c21.69,2.54,43.34,5.37,64.91,8.71c21.58,3.28,43.1,6.87,64.58,10.75
			c21.46,3.99,42.84,8.35,64.17,13.02c21.33,4.62,42.55,9.84,63.69,15.38c10.57,2.79,21.11,5.67,31.63,8.65
			c10.51,3.04,20.97,6.24,31.41,9.54c10.44,3.3,20.84,6.73,31.2,10.33c10.35,3.61,20.64,7.46,30.87,11.45
			c10.23,4.01,20.41,8.18,30.49,12.63c10.06,4.5,20.04,9.23,29.88,14.3c9.84,5.05,19.54,10.46,28.96,16.42
			c9.4,5.98,18.66,12.31,27.25,19.64c4.3,3.66,8.49,7.47,12.4,11.63c3.92,4.14,7.59,8.58,10.78,13.4c3.18,4.81,5.93,10.02,7.71,15.6
			c1.78,5.57,2.56,11.48,2.07,17.21h-4.85c-0.05-5.03-1.2-10.03-3.19-14.72c-1.99-4.7-4.78-9.09-8.01-13.15
			c-6.52-8.12-14.61-15.04-23.23-21.16c-8.62-6.16-17.83-11.54-27.25-16.52c-9.43-4.97-19.14-9.45-28.97-13.65
			c-19.68-8.37-39.89-15.53-60.32-22c-20.44-6.45-41.11-12.2-61.92-17.42c-41.62-10.42-83.71-19.05-126.03-26.3
			c-42.32-7.25-84.87-13.19-127.55-17.97c-42.68-4.78-85.48-8.41-128.35-10.87c-42.86-2.5-85.79-3.8-128.7-3.6
			c-42.9,0.24-85.81,1.93-128.44,6.11c-21.31,2.09-42.55,4.82-63.59,8.5c-21.03,3.69-41.9,8.31-62.2,14.57
			c-10.14,3.15-20.11,6.75-29.78,10.93c-2.42,1.04-4.8,2.16-7.18,3.27c-2.35,1.17-4.73,2.29-7.01,3.55c-4.64,2.43-9.12,5.11-13.42,8
			c-1.06,0.74-2.16,1.44-3.2,2.21l-3.1,2.31l-6.66,4.87c-2.2,1.69-4.54,3.13-6.84,4.63l-3.46,2.24c-0.58,0.37-1.15,0.76-1.73,1.11
			l-1.78,1.03l-7.1,4.13c-2.37,1.38-4.82,2.57-7.22,3.87c-4.8,2.62-9.74,4.9-14.65,7.27c-2.44,1.22-4.95,2.25-7.43,3.36l-7.46,3.28
			c-5.03,2.02-10.03,4.15-15.1,6.09c-10.12,3.89-20.31,7.57-30.58,10.97c-20.53,6.85-41.29,12.87-62.16,18.38
			c-41.75,11.02-83.98,19.91-126.33,27.89c-21.18,3.98-42.42,7.61-63.68,11.08c-21.26,3.47-42.56,6.7-63.88,9.74
			c-21.32,3.04-42.66,5.95-64.02,8.63c-21.36,2.67-42.74,5.21-64.14,7.61c-42.79,4.77-85.63,9.05-128.51,12.85
			c-85.77,7.59-171.62,13.72-257.67,17.56l2.93-2.32l-50.06,174.53L167.87,769.13z"/>
	</g>
	<g>
		<path class="st0" d="M1394.5,662.08l1350.77-20.24c0,0,323.68,53.12,443.88,151.77c49.38,55.65,41.79,177.07,41.79,177.07"/>
		<path class="st2" d="M1394.47,659.66c14.05-1.77,28.1-3.42,42.15-4.95l21.08-2.28l21.08-2.14c14.05-1.46,28.11-2.77,42.16-4.09
			l21.08-1.97l21.08-1.83c28.11-2.53,56.23-4.66,84.34-6.92l42.18-3.07c14.06-1,28.12-2.08,42.18-2.94
			c112.48-7.52,224.98-13.15,337.51-17.5c112.53-4.24,225.07-7.06,337.64-8.67c56.28-0.82,112.57-1.26,168.86-1.48
			c56.29-0.15,112.59,0,168.89,0.55l4.6,0.05l2.38,0.47l7.69,1.52l7.45,1.53l14.78,3.16c9.82,2.15,19.61,4.34,29.38,6.63
			c4.89,1.13,9.76,2.29,14.63,3.46c4.87,1.17,9.75,2.33,14.6,3.59c4.86,1.22,9.71,2.49,14.55,3.77c4.85,1.26,9.69,2.55,14.53,3.87
			c19.35,5.24,38.66,10.65,57.86,16.51c19.18,5.96,38.29,12.17,57.3,18.8c19.02,6.61,37.89,13.78,56.62,21.4
			c18.72,7.7,37.32,15.81,55.61,24.81l13.66,6.94l3.41,1.73l3.38,1.83l6.76,3.67l6.75,3.68l6.68,3.9c4.43,2.63,8.88,5.17,13.22,8.05
			l6.54,4.2c2.17,1.4,4.36,2.76,6.49,4.31c4.27,3.02,8.56,5.94,12.78,9.04l12.46,9.68c4.03,3.49,8.01,7.02,11.97,10.52l1.67,1.47
			l0.41,0.52c5.65,7.29,10.26,14.98,14.13,22.8c3.9,7.81,6.91,15.78,9.4,23.79c0.59,2.01,1.28,3.99,1.77,6.01l1.59,6.01
			c0.92,4.02,1.89,8.02,2.62,12.03c0.82,4,1.42,8.02,2.08,12.02c0.55,4.01,1.07,8.01,1.46,12.01c1.66,15.99,2.11,31.89,1.67,47.68
			c-0.19,7.89-0.67,15.76-1.35,23.59c-0.65,7.84-1.6,15.61-2.83,23.43l-4.84-0.3c0.36-7.6,0.39-15.35,0.27-23.03
			c-0.13-7.7-0.46-15.39-0.99-23.07c-1.08-15.35-2.86-30.65-5.77-45.72c-0.69-3.78-1.54-7.51-2.35-11.26
			c-0.92-3.72-1.78-7.45-2.85-11.12c-0.97-3.7-2.17-7.33-3.31-10.97l-1.89-5.4c-0.6-1.81-1.37-3.55-2.04-5.34
			c-5.56-14.16-13.02-27.58-22.91-38.83l0.37,0.36c-15.09-12.24-31.77-22.55-48.94-31.87c-17.2-9.29-34.94-17.64-52.98-25.33
			c-18.09-7.57-36.44-14.54-54.96-21.07c-18.54-6.47-37.25-12.45-56.06-18.14c-37.66-11.25-75.73-21.16-114.05-29.98
			c-19.16-4.42-38.38-8.58-57.64-12.53c-19.25-3.92-38.6-7.66-57.91-10.91l0.8,0.06l-337.69,5.35l-337.7,4.78
			c-112.56,1.68-225.14,2.93-337.7,4.35l-84.43,1.03l-84.43,0.87l-168.86,1.73L1394.47,659.66z"/>
	</g>
	<text transform="matrix(1 0 0 1 410.6583 1055.2043)"><tspan x="0" y="0" class="st2 st3 st4 st5">AUTO</tspan><tspan x="850.2" y="0" class="st1 st3 st4 st5">SELECTION</tspan></text>
</g>
</svg>
